<?xml version="1.0" standalone="no"?>
<!DOCTYPE svg PUBLIC "-//W3C//DTD SVG 20010904//EN"
 "http://www.w3.org/TR/2001/REC-SVG-20010904/DTD/svg10.dtd">
<svg version="1.0" xmlns="http://www.w3.org/2000/svg"
 width="375.000000pt" height="113.000000pt" viewBox="0 0 375.000000 113.000000"
 preserveAspectRatio="xMidYMid meet">

<g transform="translate(0.000000,113.000000) scale(0.100000,-0.100000)"
fill="#000000" stroke="none">
<path d="M870 700 l0 -410 85 0 85 0 0 178 c0 207 12 266 65 319 65 65 157 33
184 -63 27 -96 0 -335 -53 -466 l-23 -57 23 -16 c32 -21 36 -20 71 17 48 50
99 141 130 232 24 69 28 97 28 191 0 94 -3 116 -22 151 -72 134 -246 167 -361
68 l-42 -36 0 151 0 151 -85 0 -85 0 0 -410z"/>
<path d="M299 1032 c-330 -109 -356 -575 -41 -720 43 -20 78 -27 144 -30 141
-7 238 35 316 137 36 47 35 51 -17 71 -31 13 -36 12 -45 -5 -77 -132 -222
-163 -326 -69 -112 101 -120 349 -14 472 47 56 87 75 154 76 87 1 131 -30 190
-133 7 -13 14 -12 49 3 l40 19 -19 36 c-27 52 -77 96 -145 127 -79 37 -202 43
-286 16z"/>
<path d="M1744 884 c-60 -21 -119 -77 -151 -142 -25 -50 -28 -68 -28 -152 0
-84 3 -102 28 -152 34 -70 94 -124 161 -143 96 -29 180 -14 239 42 l27 27 0
-37 0 -37 85 0 85 0 0 300 0 300 -30 0 c-24 0 -35 -8 -56 -42 -14 -24 -33 -54
-41 -67 l-16 -24 -15 29 c-50 100 -169 140 -288 98z m212 -95 c44 -41 57 -85
58 -189 1 -84 -2 -101 -26 -150 -42 -86 -107 -112 -175 -70 -41 24 -59 60 -73
143 -13 74 -1 176 26 229 36 69 136 88 190 37z"/>
<path d="M2605 882 c-37 -17 -86 -65 -110 -106 -8 -15 -16 -7 -48 48 -34 57
-43 66 -68 66 l-29 0 0 -435 0 -435 85 0 85 0 0 165 0 165 46 -33 c42 -30 51
-32 127 -32 72 0 89 4 135 29 97 54 145 145 145 276 0 92 -18 148 -67 213 -62
81 -213 120 -301 79z m115 -77 c17 -9 40 -34 52 -58 20 -37 23 -57 23 -157 0
-100 -3 -120 -23 -157 -54 -103 -175 -95 -225 15 -18 39 -22 65 -22 152 0 90
3 111 23 147 36 68 107 92 172 58z"/>
<path d="M3355 882 c-37 -17 -86 -65 -110 -106 -8 -15 -16 -7 -48 48 -34 57
-43 66 -68 66 l-29 0 0 -435 0 -435 85 0 85 0 0 165 0 165 46 -33 c42 -30 51
-32 127 -32 72 0 89 4 135 29 97 54 145 145 145 276 0 92 -18 148 -67 213 -62
81 -213 120 -301 79z m115 -77 c17 -9 40 -34 52 -58 20 -37 23 -57 23 -157 0
-100 -3 -120 -23 -157 -54 -103 -175 -95 -225 15 -18 39 -22 65 -22 152 0 90
3 111 23 147 36 68 107 92 172 58z"/>
</g>
</svg>
